<svg xmlns="http://www.w3.org/2000/svg" viewBox="0 0 960 520" role="img" aria-labelledby="t d"><title id="t">Electrodeposition and growth</title><desc id="d">الترسيب والنمو</desc><defs><linearGradient id="bg" x1="0" x2="1"><stop stop-color="#eef6f2"/><stop offset="1" stop-color="#f8f0df"/></linearGradient><marker id="arr" markerWidth="10" markerHeight="10" refX="8" refY="3" orient="auto"><path d="M0,0 L0,6 L9,3 z" fill="#b6781f"/></marker></defs><rect width="960" height="520" rx="26" fill="url(#bg)"/><rect x="24" y="24" width="912" height="472" rx="22" fill="none" stroke="#12394a" stroke-width="3"/><text x="480" y="60" text-anchor="middle" font-family="Georgia,serif" font-size="28" font-weight="700" fill="#092b3a">Electrodeposition and growth</text><text x="480" y="94" text-anchor="middle" direction="rtl" font-family="Tahoma,Arial" font-size="23" fill="#0d4b60">الترسيب والنمو</text><rect x="120" y="340" width="720" height="42" fill="#5b6267"/><g fill="#c98b41"><circle cx="230" cy="315" r="18"/><circle cx="350" cy="300" r="28"/><circle cx="480" cy="318" r="20"/><circle cx="620" cy="285" r="35"/><circle cx="760" cy="310" r="22"/></g><g fill="#3f87b5"><circle cx="220" cy="175" r="14"/><circle cx="350" cy="155" r="14"/><circle cx="480" cy="185" r="14"/><circle cx="630" cy="150" r="14"/><circle cx="760" cy="180" r="14"/></g><g stroke="#b6781f" stroke-width="5" marker-end="url(#arr)"><path d="M220 195 L225 285"/><path d="M350 175 L350 260"/><path d="M480 205 L480 285"/><path d="M630 170 L625 245"/><path d="M760 200 L760 280"/></g><text x="480" y="430" text-anchor="middle" font-size="21">nucleation + growth + current distribution</text><text x="480" y="484" text-anchor="middle" font-family="Arial" font-size="15" fill="#596575">Original conceptual course illustration · رسم مفاهيمي أصلي للمقرر</text></svg>