<svg xmlns="http://www.w3.org/2000/svg" width="820" height="440" viewBox="0 0 820 440"><style>text{font-family:Arial,sans-serif;fill:#14213d}.s{stroke:#14213d;stroke-width:3;fill:none}.f{fill:#f7f1e3;stroke:#b58b2a;stroke-width:2}.g{stroke:#b58b2a;stroke-width:3;fill:none}.d{stroke:#5b6472;stroke-width:2;stroke-dasharray:8 7;fill:none}</style><text x="70" y="45" font-size="24">Rotational</text><text x="500" y="45" font-size="24">Vibrational</text><line class="s" x1="100" y1="350" x2="320" y2="350"/><line class="s" x1="100" y1="300" x2="320" y2="300"/><line class="s" x1="100" y1="215" x2="320" y2="215"/><line class="s" x1="100" y1="95" x2="320" y2="95"/><text x="55" y="356" font-size="18">J=0</text><text x="55" y="306" font-size="18">J=1</text><text x="55" y="221" font-size="18">J=2</text><text x="55" y="101" font-size="18">J=3</text><path class="g" d="M250 345 L250 307"/><text x="265" y="330" font-size="18">ΔJ=+1</text><line class="s" x1="500" y1="350" x2="730" y2="350"/><line class="s" x1="500" y1="250" x2="730" y2="250"/><line class="s" x1="500" y1="150" x2="730" y2="150"/><line class="s" x1="500" y1="50" x2="730" y2="50"/><text x="460" y="356" font-size="18">v=0</text><text x="460" y="256" font-size="18">v=1</text><text x="460" y="156" font-size="18">v=2</text><text x="460" y="56" font-size="18">v=3</text><path class="g" d="M660 345 L660 257"/><text x="680" y="306" font-size="18">Δv=+1</text></svg>